<svg xmlns="http://www.w3.org/2000/svg" version="1.1" xmlns:xlink="http://www.w3.org/1999/xlink" xmlns:svgjs="http://svgjs.dev/svgjs" width="24" height="24"><svg width="24" height="24" viewBox="0 0 24 24" fill="none" xmlns="http://www.w3.org/2000/svg">
<path d="M20.373 12.021L20.9245 12.9285C21.0625 13.157 21.006 13.4625 20.8005 13.617C20.466 13.721 19.9915 14.016 19.749 13.614C19.1355 12.605 18.756 12.3515 18.3 11.975L19.428 16.9875L18.3 20.5H15.75C15.75 19.3025 16.504 19.632 16.588 19.591L16.595 19.5835C16.85 18.715 18.3 19 17.517 16.9875C17.5735 16.4175 16.595 16.5 16.3 15.655C16.005 14.81 14.5275 16.3335 13.926 16.5C12.75 17.25 11.579 17.3665 10.486 16.155C9.87402 16.6715 10.146 17.607 10.2 19C10.233 19.851 9.98552 20.5 9.98552 20.5H7.50002C7.50002 19.25 8.40001 19.5835 8.40001 19.5835L8.90001 18.23L8.40001 14.8765L7.00002 10.9585L5.80952 12.6105C5.72977 12.7006 5.632 12.773 5.52254 12.8229C5.41307 12.8729 5.29434 12.8993 5.17402 12.9005H4.30202C3.96202 12.9005 3.64952 12.688 3.49702 12.3545L3.09502 11.4715C3.01986 11.3062 2.98822 11.1244 3.00309 10.9434C3.01797 10.7625 3.07887 10.5883 3.18002 10.4375L5.27802 7.37248C5.32552 7.30148 5.39602 7.25848 5.45802 7.20598C5.34552 7.13798 5.23302 7.07598 5.14002 6.97448C4.67902 6.46798 4.62252 4.18448 4.96852 3.60998C4.98533 3.58008 5.00905 3.55464 5.03771 3.53578C5.06636 3.51692 5.09911 3.50519 5.13322 3.50157C5.16733 3.49795 5.20181 3.50254 5.23379 3.51496C5.26576 3.52739 5.2943 3.54728 5.31702 3.57298C6.54152 4.91298 6.50002 7.20598 7.91602 7.43098L10.2 9.93748H16.8265C18.2555 9.93748 19.58 10.7155 20.373 12.021Z" fill="black"></path>
</svg><style>@media (prefers-color-scheme: light) { :root { filter: none; } }
@media (prefers-color-scheme: dark) { :root { filter: invert(100%); } }
</style></svg>